<svg width="1025" height="929" viewBox="0 0 1025 929" fill="none" xmlns="http://www.w3.org/2000/svg" xmlns:xlink="http://www.w3.org/1999/xlink">
<use xlink:href="#stroke0_426_101" transform="translate(1046.05 -35.9296) scale(0.299392) rotate(145.759)"/>
<use xlink:href="#stroke0_426_101" transform="translate(1031.1 -49.4393) scale(0.299392) rotate(119.075)"/>
<use xlink:href="#stroke0_426_101" transform="translate(1017.61 -19.0758) scale(0.299392) rotate(127.071)"/>
<use xlink:href="#stroke0_426_101" transform="translate(997.636 32.3112) scale(0.299392) rotate(152.169)"/>
<use xlink:href="#stroke0_426_101" transform="translate(972.362 65.7589) scale(0.299392) rotate(165.462)"/>
<use xlink:href="#stroke0_426_101" transform="translate(948.677 85.3761) scale(0.299392) rotate(169.921)"/>
<use xlink:href="#stroke0_426_101" transform="translate(924.501 95.047) scale(0.299392) rotate(170.629)"/>
<use xlink:href="#stroke0_426_101" transform="translate(898.301 100.946) scale(0.299392) rotate(172.205)"/>
<use xlink:href="#stroke0_426_101" transform="translate(884.796 82.6852) scale(0.299392) rotate(154.028)"/>
<use xlink:href="#stroke0_426_101" transform="translate(856.068 94.1797) scale(0.299392) rotate(160.958)"/>
<use xlink:href="#stroke0_426_101" transform="translate(797.599 129.473) scale(0.299392) rotate(-162.67)"/>
<use xlink:href="#stroke0_426_101" transform="translate(812.02 85.9562) scale(0.299392) rotate(148.112)"/>
<use xlink:href="#stroke0_426_101" transform="translate(787.366 94.1858) scale(0.299392) rotate(149.094)"/>
<use xlink:href="#stroke0_426_101" transform="translate(760.344 116.215) scale(0.299392) rotate(158.316)"/>
<use xlink:href="#stroke0_426_101" transform="translate(747.152 98.6348) scale(0.299392) rotate(132.262)"/>
<use xlink:href="#stroke0_426_101" transform="translate(730.297 122.727) scale(0.299392) rotate(136.261)"/>
<use xlink:href="#stroke0_426_101" transform="translate(716.597 135.478) scale(0.299392) rotate(129.623)"/>
<use xlink:href="#stroke0_426_101" transform="translate(704.648 173.188) scale(0.299392) rotate(141.311)"/>
<use xlink:href="#stroke0_426_101" transform="translate(686.52 148.152) scale(0.299392) rotate(101.943)"/>
<use xlink:href="#stroke0_426_101" transform="translate(673.324 161.967) scale(0.299392) rotate(91.4021)"/>
<use xlink:href="#stroke0_426_101" transform="translate(685.821 233.568) scale(0.299392) rotate(131.382)"/>
<use xlink:href="#stroke0_426_101" transform="translate(669.725 222.026) scale(0.299392) rotate(101.842)"/>
<use xlink:href="#stroke0_426_101" transform="translate(657.281 237.514) scale(0.299392) rotate(93.1717)"/>
<use xlink:href="#stroke0_426_101" transform="translate(665.828 310.327) scale(0.299392) rotate(134.208)"/>
<use xlink:href="#stroke0_426_101" transform="translate(642.507 291.224) scale(0.299392) rotate(100.307)"/>
<use xlink:href="#stroke0_426_101" transform="translate(639.29 363.063) scale(0.299392) rotate(141.41)"/>
<use xlink:href="#stroke0_426_101" transform="translate(622.066 373.105) scale(0.299392) rotate(135.407)"/>
<use xlink:href="#stroke0_426_101" transform="translate(589.386 422.768) scale(0.299392) rotate(165.099)"/>
<use xlink:href="#stroke0_426_101" transform="translate(553.527 446.422) scale(0.299392) rotate(179.935)"/>
<use xlink:href="#stroke0_426_101" transform="translate(546.154 427.957) scale(0.299392) rotate(156.708)"/>
<use xlink:href="#stroke0_426_101" transform="translate(511.481 449.903) scale(0.299392) rotate(171.636)"/>
<use xlink:href="#stroke0_426_101" transform="translate(485.38 454.457) scale(0.299392) rotate(172.87)"/>
<use xlink:href="#stroke0_426_101" transform="translate(463.772 451.921) scale(0.299392) rotate(168.276)"/>
<use xlink:href="#stroke0_426_101" transform="translate(449.509 431.2) scale(0.299392) rotate(148.368)"/>
<use xlink:href="#stroke0_426_101" transform="translate(391.614 480.052) scale(0.299392) rotate(-168.135)"/>
<use xlink:href="#stroke0_426_101" transform="translate(403.493 425.839) scale(0.299392) rotate(133.684)"/>
<use xlink:href="#stroke0_426_101" transform="translate(376.973 457.81) scale(0.299392) rotate(150.609)"/>
<use xlink:href="#stroke0_426_101" transform="translate(342.596 492.688) scale(0.299392) rotate(170.754)"/>
<use xlink:href="#stroke0_426_101" transform="translate(327.016 423.091) scale(0.299392) rotate(100.414)"/>
<use xlink:href="#stroke0_426_101" transform="translate(296.579 424.057) scale(0.299392) rotate(74.5013)"/>
<use xlink:href="#stroke0_426_101" transform="translate(309.922 461.54) scale(0.299392) rotate(89.5636)"/>
<use xlink:href="#stroke0_426_101" transform="translate(307.466 488.354) scale(0.299392) rotate(91.5555)"/>
<use xlink:href="#stroke0_426_101" transform="translate(309.659 533.708) scale(0.299392) rotate(112.409)"/>
<use xlink:href="#stroke0_426_101" transform="translate(291.311 545.158) scale(0.299392) rotate(104.073)"/>
<use xlink:href="#stroke0_426_101" transform="translate(286.297 599.674) scale(0.299392) rotate(131.265)"/>
<use xlink:href="#stroke0_426_101" transform="translate(258.677 580.633) scale(0.299392) rotate(98.5032)"/>
<use xlink:href="#stroke0_426_101" transform="translate(256.789 648.12) scale(0.299392) rotate(136.825)"/>
<use xlink:href="#stroke0_426_101" transform="translate(241.447 664.13) scale(0.299392) rotate(133.721)"/>
<use xlink:href="#stroke0_426_101" transform="translate(223.251 691.941) scale(0.299392) rotate(141.098)"/>
<use xlink:href="#stroke0_426_101" transform="translate(201.888 677.856) scale(0.299392) rotate(117.374)"/>
<use xlink:href="#stroke0_426_101" transform="translate(166.958 760.542) scale(0.299392) rotate(173.011)"/>
<use xlink:href="#stroke0_426_101" transform="translate(152.353 765.014) scale(0.299392) rotate(164.18)"/>
<use xlink:href="#stroke0_426_101" transform="translate(128.82 779.159) scale(0.299392) rotate(166.058)"/>
<use xlink:href="#stroke0_426_101" transform="translate(117.936 750.615) scale(0.299392) rotate(133.776)"/>
<use xlink:href="#stroke0_426_101" transform="translate(83.0776 799.815) scale(0.299392) rotate(165.654)"/>
<use xlink:href="#stroke0_426_101" transform="translate(69.5043 786.392) scale(0.299392) rotate(146.092)"/>
<use xlink:href="#stroke0_426_101" transform="translate(46.6945 798.709) scale(0.299392) rotate(146.848)"/>
<use xlink:href="#stroke0_426_101" transform="translate(14.6245 836.722) scale(0.299392) rotate(167.467)"/>
<use xlink:href="#stroke0_426_101" transform="translate(3.10767 835.49) scale(0.299392) rotate(152.958)"/>
<use xlink:href="#stroke0_426_101" transform="translate(-13.5634 809.035) scale(0.299392) rotate(118.932)"/>
<use xlink:href="#stroke0_426_101" transform="translate(-29.8178 857.181) scale(0.299392) rotate(142.219)"/>
<use xlink:href="#stroke0_426_101" transform="translate(-52.9333 828.324) scale(0.299392) rotate(102.111)"/>
<use xlink:href="#stroke0_426_101" transform="translate(-107.557 806.984) scale(0.299392) rotate(49.055)"/>
<defs>
<g id="stroke0_426_101" data-figma-scatter="f0.25_w0_aj30_sj0_r0_s0_sw108.37413024902344">
<path d="M144.904 352.362C147.954 349.312 149.763 349.672 150.203 353.416C150.707 357.707 148.541 361.981 145.862 361.981C141.689 361.981 141.109 356.157 144.904 352.362ZM233.557 300.848C235.222 299.793 235.148 299.79 239.626 301.034C246.137 302.842 242.834 311.43 236.149 310.074C232.526 309.339 230.657 302.687 233.557 300.848ZM115.043 291.648C115.876 290.814 121.675 290.775 123.794 291.588C127.87 293.152 123.8 300.981 118.911 300.981C115.434 300.981 112.584 294.106 115.043 291.648ZM175 267.844C177.951 264.584 182.797 265.664 183.185 269.669C183.542 273.361 180.116 276.366 176.184 275.808C173.174 275.381 172.468 270.643 175 267.844ZM300.599 259.538C303.26 257.674 305.545 257.551 307.176 259.181C310.959 262.964 304.966 270.3 300.126 267.811C297.566 266.494 297.854 261.461 300.599 259.538ZM65.0379 258.053C67.3289 254.782 73.1336 255.171 74.0077 258.652C74.8097 261.846 70.4911 266.288 67.0751 265.785C64.3022 265.377 63.1012 260.818 65.0379 258.053ZM1.62975 232.231C4.06261 229.617 7.57057 229.306 9.42565 231.541C12.2486 234.942 6.98636 241.476 2.39147 240.275C-0.416467 239.54 -0.856054 234.902 1.62975 232.231ZM227.315 227.042C231.346 223.011 237.247 225.557 235.37 230.516C234.195 233.619 231.794 235.16 228.686 234.803C225.023 234.383 224.265 230.092 227.315 227.042ZM178.376 211.732C181.51 210.534 185.325 212.743 185.361 215.776C185.383 217.706 180.74 221.981 178.621 221.981C173.248 221.981 173.051 213.767 178.376 211.732ZM137.582 210.262C140.566 207.086 142.799 207.702 143.195 211.81C143.572 215.732 141.11 219.981 138.46 219.981C134.822 219.981 134.264 213.794 137.582 210.262ZM104.68 201.937C111.231 197.943 114.57 200.054 112.52 206.893C111.161 211.43 108.789 213.748 104.661 214.574C98.8111 215.744 98.826 205.507 104.68 201.937ZM156.506 182.543C159.544 178.68 163.042 179.112 164.254 183.5C165.996 189.811 163.107 195.981 158.409 195.981C152.055 195.981 151.122 189.388 156.506 182.543ZM332.126 178.425C334.334 175.356 337.748 175.58 338.208 178.826C338.634 181.835 336.64 186.667 334.658 187.427C330.706 188.943 328.979 182.801 332.126 178.425ZM134.324 176.981C140.114 176.981 141.992 179.238 139.609 183.334C135.805 189.874 127.938 186.852 129.768 179.555C130.324 177.339 130.958 176.981 134.324 176.981ZM180.774 170.492C187.383 163.883 194.419 171.193 189.887 179.96C188.034 183.542 185.237 184.501 181.642 182.786C177.638 180.875 177.16 174.106 180.774 170.492ZM112.139 167.546C117.116 164.845 119.376 165.47 119.376 169.547C119.376 175.831 115.282 180.917 110.189 180.959C104.909 181.002 106.413 170.653 112.139 167.546ZM33.1649 171.731C33.7239 169.528 40.0954 169.319 42.9354 171.41C44.8492 172.819 44.8486 172.89 42.9686 176.41C39.2236 183.42 31.175 179.578 33.1649 171.731ZM267.696 168.981C273.426 168.981 275.119 170.774 273.371 174.993C270.77 181.273 264.078 180.001 263.569 173.129C263.261 168.981 263.261 168.981 267.696 168.981ZM159.448 152.616C163.233 147.805 167.376 150.326 167.376 157.442C167.376 162.776 164.86 166.231 160.976 166.231C154.714 166.231 153.968 159.584 159.448 152.616ZM219.499 156.351C222.081 153.602 224.581 153.329 226.805 155.553C229.465 158.213 227.98 162.421 223.824 164.001C218.528 166.014 215.482 160.626 219.499 156.351ZM132.138 146.054C136.16 143.711 141.73 146.765 142.866 151.935C144.745 160.488 132.178 162.971 129.413 154.593C128.136 150.724 129.053 147.852 132.138 146.054ZM184.272 140.085C189.178 135.179 197.376 139.426 197.376 146.875C197.376 151.373 188.322 153.789 185.043 150.165C182.218 147.044 181.87 142.487 184.272 140.085ZM103.265 136.643C106.172 135.867 106.971 135.965 108.832 137.325C112.7 140.153 107.295 147.407 102.187 146.243C98.8774 145.488 99.7655 137.579 103.265 136.643ZM62.4491 135.616C65.764 131.401 68.3758 132.603 68.3758 138.341C68.3755 143.269 62.4813 147.303 60.9833 143.399C59.9033 140.585 60.3321 138.306 62.4491 135.616ZM158.258 128.107C163.297 122.713 167.571 126.799 165.946 135.459C165.2 139.434 163.282 141.231 159.784 141.231C153.605 141.231 152.763 133.99 158.258 128.107ZM121.831 124.436C124.74 121.526 129.132 122.159 129.998 125.613C130.635 128.147 129.291 130.422 126.17 132.092C121.221 134.74 117.713 128.553 121.831 124.436ZM262.467 115.114C264.971 112.426 267.759 112.682 268.182 115.639C268.678 119.104 265.754 124.981 263.534 124.981C259.887 124.981 259.199 118.621 262.467 115.114ZM219.09 113.601C220.466 112.224 227.646 113.439 228.774 115.24C231.457 119.521 223.801 125.239 219.816 121.931C218.332 120.7 217.823 114.868 219.09 113.601ZM186.626 107.037C189.254 106.009 193.302 106.693 195.224 108.488C197.466 110.583 193.061 116.981 189.376 116.981C184.556 116.981 182.277 108.737 186.626 107.037ZM143.089 101.602C145.174 99.5174 152.875 101.476 153.187 104.17C153.806 109.534 145.807 113.524 143.411 109.047C142.221 106.823 142.041 102.651 143.089 101.602ZM311.489 95.5642C314.286 92.0082 316.785 92.5543 317.195 96.8103C317.572 100.732 315.11 104.981 312.46 104.981C308.888 104.981 308.331 99.5791 311.489 95.5642ZM108.031 95.8103C111.186 92.3234 116.376 94.073 116.376 98.6238C116.376 101.384 112.875 103.981 109.153 103.981C105.832 103.981 105.147 98.9973 108.031 95.8103ZM175.774 83.3865C176.469 81.5745 182.402 81.5484 184.862 83.3474C188.912 86.3095 183.355 92.8823 177.705 91.8113C175.831 91.4563 174.652 86.3105 175.774 83.3865ZM38.5047 74.3435C41.9087 70.7215 43.895 71.6512 43.786 76.8172C43.676 81.981 41.2662 85.0278 38.6073 83.3631C35.9104 81.6751 35.8591 77.1605 38.5047 74.3435ZM257.376 69.9812C259.645 67.7122 260.694 67.5464 263.442 69.0164C268.436 71.6895 262.915 80.2395 257.338 78.4695C254.707 77.6344 254.729 72.6282 257.376 69.9812ZM112.217 45.325C116.782 43.296 117.771 44.0962 117.562 49.6482C117.204 59.1642 105.376 64.0357 105.376 54.6668C105.376 49.9811 107.13 47.5859 112.217 45.325ZM215.774 47.3865C216.895 44.4646 226.393 46.547 226.354 49.7058C226.271 56.3407 216.176 58.6121 215.556 52.1365C215.379 50.2967 215.478 48.1587 215.774 47.3865ZM161.376 36.7224C163.823 35.7714 164.281 35.8862 166.376 37.9812C170.527 42.1322 164.797 48.6148 158.958 46.3738C155.842 45.1776 157.591 38.1946 161.376 36.7224ZM128 2.8445C130.951 -0.416408 135.797 0.664004 136.185 4.66872C136.542 8.36057 133.116 11.3661 129.184 10.8084C126.174 10.3814 125.468 5.64253 128 2.8445ZM209.576 1.18141C212.244 -1.48652 219.392 0.727986 219.344 4.20582C219.236 11.9387 208.439 12.6541 208.391 4.93141C208.383 3.52851 208.916 1.84151 209.576 1.18141Z" fill="#68DCD2" fill-opacity="0.61"/>
</g>
</defs>
</svg>
