<svg width="108" height="24" viewBox="0 0 108 24" fill="none" xmlns="http://www.w3.org/2000/svg">
<g clip-path="url(#clip0_193_242)">
<path d="M11.9844 -0.0222168C9.60607 -0.0222168 7.28115 0.682871 5.30364 2.00388C3.32614 3.3249 1.78486 5.2025 0.874708 7.39927C-0.0354392 9.59603 -0.273575 12.0133 0.190414 14.3454C0.654403 16.6774 1.79968 18.8196 3.48141 20.5009C5.16314 22.1822 7.3058 23.3272 9.63843 23.7911C11.9711 24.255 14.3889 24.0169 16.5862 23.107C18.7835 22.1971 20.6615 20.6561 21.9829 18.6791C23.3042 16.7021 24.0094 14.3777 24.0094 12C24.0094 8.81148 22.7425 5.75359 20.4874 3.499C18.2323 1.2444 15.1736 -0.0222168 11.9844 -0.0222168ZM11.9844 22.8997C9.82812 22.8997 7.72025 22.2605 5.92737 21.0628C4.13448 19.8651 2.73709 18.1628 1.91192 16.1711C1.08675 14.1794 0.870842 11.9879 1.29151 9.87351C1.71218 7.75917 2.75053 5.81701 4.27526 4.29265C5.79998 2.76829 7.7426 1.73019 9.85745 1.30962C11.9723 0.889051 14.1644 1.1049 16.1566 1.92988C18.1487 2.75486 19.8514 4.15191 21.0494 5.94437C22.2474 7.73682 22.8868 9.84418 22.8868 12C22.8861 14.8905 21.7373 17.6626 19.6928 19.7065C17.6484 21.7505 14.8757 22.8991 11.9844 22.8997Z" fill="black"/>
<path d="M16.9491 4.49231H16.1258V8.60778H7.86793V4.49231H7.01969C5.7773 5.31174 4.75767 6.42654 4.05219 7.73682C3.34671 9.04709 2.97742 10.5119 2.97742 11.9999C2.97742 13.488 3.34671 14.9528 4.05219 16.263C4.75767 17.5733 5.7773 18.6881 7.01969 19.5076H7.86793V15.3971H16.1258V19.5125H16.9491C18.192 18.6935 19.2122 17.5788 19.918 16.2685C20.6239 14.9582 20.9934 13.4932 20.9934 12.0049C20.9934 10.5166 20.6239 9.05165 19.918 7.74132C19.2122 6.431 18.192 5.31633 16.9491 4.4973V4.49231ZM6.72032 17.8913C5.94658 17.204 5.31584 16.371 4.86412 15.44C4.4124 14.5089 4.14854 13.498 4.08761 12.465C4.02668 11.432 4.16987 10.3972 4.50902 9.41949C4.84816 8.44182 5.3766 7.54052 6.06418 6.76704C6.27026 6.5369 6.48933 6.31871 6.72032 6.11356V17.8913ZM16.1258 14.2497H7.86793V9.73018H16.1258V14.2497ZM17.2485 17.8664V15.3721V8.60778V6.11356C18.0203 6.80646 18.648 7.64463 19.0957 8.58017C19.5434 9.5157 19.8024 10.5303 19.8578 11.5659C19.9131 12.6015 19.7639 13.6379 19.4184 14.6158C19.073 15.5937 18.5383 16.494 17.8447 17.2652C17.6561 17.4738 17.4571 17.6728 17.2485 17.8614V17.8664Z" fill="black"/>
<path fill-rule="evenodd" clip-rule="evenodd" d="M46.1912 11.7007C46.844 11.4481 47.404 11.0023 47.7964 10.4228C48.1887 9.84334 48.3947 9.15787 48.3867 8.45816C48.3867 5.53991 46.3159 4.09326 43.4719 4.09326H36.0123V19.9615H44.1205C46.6153 19.9615 49.0603 18.2156 49.0603 15.5467C49.0603 12.3741 46.1912 11.7306 46.1912 11.7007ZM39.9043 7.38564H42.7982C42.9836 7.37416 43.1693 7.39932 43.3449 7.4597C43.5205 7.52007 43.6824 7.61447 43.8214 7.73749C43.9605 7.86051 44.0739 8.00973 44.1552 8.17662C44.2365 8.34351 44.284 8.52479 44.2951 8.71007C44.2951 8.76661 44.2951 8.82398 44.2951 8.88218C44.2873 9.27228 44.1255 9.64348 43.8452 9.91491C43.5648 10.1863 43.1885 10.336 42.7982 10.3313H39.8793L39.9043 7.38564ZM42.8232 16.6392H39.9292V13.5214H42.7483C44.1704 13.5214 44.844 14.145 44.844 15.0679C44.844 16.2202 43.9958 16.6392 42.8232 16.6392Z" fill="#ED0007"/>
<path fill-rule="evenodd" clip-rule="evenodd" d="M57.6424 3.69421C53.052 3.69421 50.3575 7.36073 50.3575 12C50.3575 16.6392 53.052 20.3058 57.6424 20.3058C62.2329 20.3058 64.9273 16.6642 64.9273 12C64.9273 7.33578 62.2578 3.69421 57.6424 3.69421ZM57.6424 16.5145C55.3971 16.5145 54.2744 14.4942 54.2744 12C54.2744 9.50576 55.3971 7.51038 57.6424 7.51038C59.8878 7.51038 61.0354 9.5307 61.0354 12C61.0354 14.5192 59.8878 16.5145 57.6424 16.5145Z" fill="#ED0007"/>
<path fill-rule="evenodd" clip-rule="evenodd" d="M73.3848 10.3289L72.836 10.2042C71.4887 9.92982 70.416 9.58063 70.416 8.60788C70.416 7.5603 71.4389 7.13629 72.337 7.13629C72.9497 7.14541 73.554 7.28081 74.1121 7.53401C74.6701 7.78722 75.1699 8.15279 75.5803 8.60788L78.0501 6.16354C76.9275 4.89148 75.1062 3.66931 72.2621 3.66931C68.9191 3.66931 66.3744 5.53998 66.3744 8.65776C66.3744 11.5012 68.4201 12.8979 70.9149 13.4217L71.4638 13.5464C73.5345 13.9705 74.3079 14.2947 74.3079 15.2924C74.3079 16.2402 73.4597 16.8638 72.1623 16.8638C70.6156 16.8638 69.2185 16.1903 68.1457 14.8185L65.6259 17.3127C67.023 18.9839 68.7943 20.2809 72.2122 20.2809C75.1811 20.2809 78.3495 18.5848 78.3495 15.1178C78.3994 11.5012 75.6551 10.8028 73.3848 10.3289Z" fill="#ED0007"/>
<path fill-rule="evenodd" clip-rule="evenodd" d="M87.2311 16.5146C85.4847 16.5146 83.6635 15.068 83.6635 11.9003C83.6635 9.08182 85.36 7.51046 87.1313 7.51046C88.5284 7.51046 89.3517 8.15896 90.0003 9.28136L93.1937 7.16127C91.597 4.74187 89.701 3.71924 87.0814 3.71924C82.2913 3.71924 79.6967 7.43563 79.6967 11.9252C79.6967 16.6393 82.5658 20.3308 87.0315 20.3308C90.175 20.3308 91.6719 19.2333 93.2935 16.8888L90.0752 14.7238C89.4265 15.7663 88.728 16.5146 87.2311 16.5146Z" fill="#ED0007"/>
<path fill-rule="evenodd" clip-rule="evenodd" d="M103.847 4.09326V9.92975H99.0316V4.09326H94.8652V19.9565H99.0316V13.696H103.847V19.9565H108.013V4.09326H103.847Z" fill="#ED0007"/>
</g>
<defs>
<clipPath id="clip0_193_242">
<rect width="108" height="24" fill="white"/>
</clipPath>
</defs>
</svg>
